<svg width="16" height="15" viewBox="0 0 16 15" fill="none" xmlns="http://www.w3.org/2000/svg">
<path d="M9.47359 14.9984C9.16151 14.9905 8.85064 14.956 8.54425 14.8954C8.29275 14.8455 8.03828 14.8124 7.78249 14.7963C7.52058 14.8011 7.25929 14.8239 7.00042 14.8645C6.66778 14.9032 6.33642 14.9662 6.00251 14.9933C5.7654 15.0141 5.52656 14.9864 5.30019 14.9119C5.07381 14.8374 4.8645 14.7175 4.68468 14.5594C4.47448 14.3851 4.27677 14.1958 4.09304 13.993C3.70471 13.5533 3.22869 13.2023 2.69649 12.9632C2.46301 12.8533 2.23658 12.7286 2.01853 12.5899C1.79749 12.4577 1.60609 12.2802 1.45657 12.0687C1.30704 11.8572 1.20266 11.6165 1.15012 11.3618C1.08156 11.0528 1.02316 10.74 0.987613 10.4259C0.926361 9.95029 0.773665 9.49149 0.538177 9.0755C0.370419 8.78596 0.228507 8.48181 0.114132 8.16666C0.0253999 7.91235 -0.0122257 7.6426 0.00347362 7.37332C0.019173 7.10403 0.0878792 6.84066 0.205543 6.59872C0.332502 6.30907 0.482315 6.02458 0.630857 5.74394C0.813564 5.38449 0.933004 4.99546 0.983805 4.59437C1.03586 4.24937 1.08918 3.9018 1.17044 3.56452C1.23627 3.29827 1.35773 3.04945 1.5266 2.83491C1.69548 2.62037 1.90783 2.44511 2.14929 2.32098C2.40321 2.17809 2.65713 2.04292 2.92248 1.91805C3.3473 1.70219 3.72842 1.40745 4.04607 1.04912C4.26104 0.820181 4.49002 0.605204 4.73165 0.405464C4.92571 0.247147 5.1499 0.131134 5.3902 0.0646832C5.6305 -0.00176767 5.88174 -0.0172273 6.1282 0.019271C6.471 0.056603 6.81125 0.115819 7.1515 0.171174C7.50171 0.229099 7.85886 0.229099 8.20907 0.171174C8.60143 0.0915685 8.99832 0.0369654 9.39741 0.00768522C9.86302 -0.0153969 10.3199 0.141483 10.6759 0.446658C10.896 0.63024 11.1031 0.829415 11.2955 1.04268C11.6872 1.47867 12.1658 1.82531 12.6996 2.05966C12.9126 2.16042 13.1195 2.2739 13.3192 2.39951C13.5523 2.5387 13.7535 2.72664 13.9094 2.95083C14.0652 3.17502 14.1722 3.43031 14.2231 3.69969C14.2879 4.01508 14.3387 4.33305 14.3806 4.65102C14.4472 5.10675 14.5979 5.54567 14.8249 5.94476C14.9519 6.17262 15.0636 6.40819 15.169 6.64635C15.2962 6.92125 15.361 7.22159 15.3586 7.52526C15.3562 7.82892 15.2866 8.12817 15.155 8.40095C15.0154 8.70604 14.863 9.0047 14.7069 9.30207C14.5258 9.67517 14.4094 10.0771 14.3628 10.4903C14.3158 10.8082 14.265 11.1262 14.1889 11.439C14.1284 11.6905 14.0171 11.9267 13.8622 12.1325C13.7073 12.3383 13.512 12.5094 13.2887 12.6349C13.0665 12.7716 12.8367 12.8954 12.6006 13.0057C12.0908 13.2428 11.6351 13.5847 11.2624 14.0098C11.0655 14.2235 10.8533 14.4223 10.6277 14.6045C10.3034 14.8744 9.89283 15.0145 9.47359 14.9984ZM9.48501 14.4977C9.79993 14.5106 10.108 14.4021 10.3471 14.1938C10.552 14.024 10.745 13.8399 10.9247 13.6429C11.3296 13.1806 11.8246 12.8085 12.3784 12.55C12.5981 12.4495 12.8101 12.3298 13.0132 12.2088C13.1963 12.1081 13.3554 11.9678 13.4791 11.7978C13.6029 11.6279 13.6883 11.4324 13.7293 11.2253C13.7826 10.9678 13.8321 10.7104 13.8651 10.4401C13.9213 9.92205 14.0743 9.41963 14.3158 8.95964C14.4529 8.70218 14.5786 8.44472 14.6967 8.18726C14.801 7.97398 14.8552 7.73916 14.8552 7.50112C14.8552 7.26308 14.801 7.02826 14.6967 6.81498C14.5697 6.55752 14.4428 6.29105 14.3082 6.03487C14.0965 5.62578 13.9589 5.18148 13.9019 4.7231C13.8613 4.42445 13.8118 4.12837 13.7547 3.83229C13.7172 3.61299 13.631 3.40523 13.5025 3.22478C13.374 3.04433 13.2067 2.89593 13.0132 2.79085C12.7987 2.66212 12.5828 2.54755 12.3594 2.44328C11.8503 2.21015 11.3927 1.8757 11.0136 1.45977C10.8346 1.26281 10.6429 1.07358 10.4474 0.897217C10.3066 0.758129 10.1379 0.65159 9.9527 0.584924C9.76751 0.518258 9.57027 0.493047 9.37456 0.511024C9.05589 0.541919 8.73976 0.58955 8.4249 0.639755C7.98299 0.724458 7.53012 0.732728 7.08548 0.664214C6.76427 0.60886 6.4418 0.554793 6.11805 0.514886C5.92351 0.482396 5.72436 0.492589 5.53404 0.544775C5.34372 0.596961 5.16664 0.689928 5.01477 0.817404C4.81274 0.986908 4.62149 1.16921 4.44218 1.36322C4.04546 1.81456 3.56203 2.17902 3.02151 2.43427C2.7685 2.55245 2.52262 2.6857 2.28514 2.83333C2.12487 2.92615 1.98556 3.05201 1.87622 3.20279C1.76688 3.35356 1.68993 3.52591 1.65034 3.7087C1.58051 4.01508 1.52338 4.32661 1.48403 4.63814C1.41856 5.15496 1.25746 5.6546 1.0092 6.11083C0.882237 6.33868 0.769243 6.57426 0.660058 6.80984C0.555782 7.02448 0.50155 7.26056 0.50155 7.49983C0.50155 7.73911 0.555782 7.97518 0.660058 8.18983C0.769243 8.4267 0.886046 8.6597 1.00793 8.88884C1.22588 9.27703 1.37499 9.70097 1.44848 10.1414C1.49418 10.4529 1.5437 10.7632 1.59448 11.0734C1.62639 11.3164 1.71489 11.5482 1.85264 11.7497C1.9904 11.9511 2.17346 12.1165 2.38671 12.232C2.58096 12.3401 2.77393 12.4483 2.97453 12.5422C3.47512 12.7657 3.92695 13.0877 4.3038 13.4897C4.48154 13.6854 4.66944 13.8759 4.85988 14.0535C5.01172 14.2131 5.19744 14.3354 5.40292 14.4113C5.60839 14.4871 5.82822 14.5144 6.04568 14.4912C6.34785 14.4565 6.64874 14.4153 6.94709 14.3625C7.46217 14.2682 7.99012 14.2725 8.50362 14.3754C8.82626 14.4472 9.15483 14.4881 9.48501 14.4977Z" fill="url(#paint0_linear_124_68)"/>
<path d="M7.76417 13.5282C6.59015 13.5455 5.43736 13.2099 4.45118 12.5638C3.46499 11.9177 2.68957 10.9899 2.22268 9.89756C1.75579 8.8052 1.61835 7.59712 1.82767 6.42566C2.037 5.25419 2.58372 4.1718 3.39891 3.31497C4.2141 2.45813 5.26124 1.86521 6.40831 1.61098C7.55538 1.35675 8.751 1.45259 9.84443 1.8864C10.9378 2.32022 11.8801 3.0726 12.5524 4.04866C13.2247 5.02473 13.5969 6.18078 13.6221 7.37104C13.6411 8.16663 13.5042 8.95815 13.2192 9.69967C12.9342 10.4412 12.5069 11.118 11.962 11.6907C11.4171 12.2635 10.7654 12.7209 10.0448 13.0363C9.32419 13.3517 8.549 13.5189 7.76417 13.5282ZM2.23382 7.42768C2.22039 8.51705 2.52497 9.58613 3.10924 10.5004C3.69351 11.4147 4.53138 12.1334 5.51747 12.5662C6.50355 12.9989 7.59381 13.1263 8.65111 12.9323C9.70841 12.7383 10.6855 12.2317 11.4596 11.4761C12.2336 10.7205 12.77 9.74969 13.0013 8.68577C13.2326 7.62185 13.1485 6.51234 12.7595 5.49679C12.3705 4.48124 11.694 3.605 10.8151 2.97829C9.93619 2.35158 8.89415 2.00239 7.82004 1.97463C7.09863 1.95495 6.38057 2.081 5.70768 2.34543C5.03479 2.60987 4.42051 3.00742 3.90062 3.51491C3.38073 4.02241 2.96561 4.62972 2.67945 5.30147C2.39329 5.97322 2.24181 6.69599 2.23382 7.42768Z" fill="url(#paint1_linear_124_68)"/>
<path d="M10.2874 4.86475H10.7787V4.951C10.7787 5.41014 10.7787 5.87014 10.7787 6.33099C10.7754 6.35215 10.7805 6.37377 10.7929 6.39114C10.8053 6.4085 10.8239 6.4202 10.8447 6.42368C11.0423 6.48883 11.2144 6.6157 11.3365 6.78613C11.4586 6.95656 11.5244 7.16179 11.5244 7.37243C11.5244 7.58306 11.4586 7.7883 11.3365 7.95872C11.2144 8.12915 11.0423 8.25603 10.8447 8.32117C10.824 8.32525 10.8057 8.33733 10.7936 8.35487C10.7815 8.37241 10.7766 8.39403 10.78 8.41515C10.78 8.87086 10.78 9.32614 10.78 9.78099V9.87753C10.7546 9.87753 10.7356 9.87753 10.7152 9.87753C10.6276 9.87753 10.54 9.87753 10.4524 9.87753C10.3648 9.87753 10.2836 9.87753 10.2455 9.75781C10.2061 9.671 10.1437 9.59701 10.0652 9.54412C9.82349 9.36056 9.55253 9.22036 9.2641 9.12961C8.70318 8.93203 8.12308 8.79566 7.53364 8.72282C7.02882 8.65266 6.51966 8.61954 6.01013 8.62369C5.98474 8.62369 5.96061 8.62369 5.92633 8.62369C5.9822 8.79619 6.03425 8.95711 6.08757 9.11802C6.16036 9.33686 6.23231 9.55571 6.3034 9.77455C6.32263 9.815 6.33068 9.85998 6.3267 9.9047C6.32273 9.94942 6.30687 9.99221 6.28083 10.0285C6.25478 10.0648 6.21951 10.0933 6.17878 10.1109C6.13804 10.1285 6.09336 10.1346 6.04949 10.1286H5.10998C5.04736 10.1353 4.98449 10.1183 4.93358 10.0807C4.88267 10.0431 4.84735 9.98767 4.83448 9.92516C4.6961 9.50293 4.55644 9.08069 4.41932 8.65716C4.4146 8.63862 4.40522 8.62164 4.39209 8.60788C4.37896 8.59412 4.36254 8.58404 4.34442 8.57864C4.19414 8.52767 4.06384 8.42938 3.9725 8.29809C3.88115 8.1668 3.83353 8.00937 3.83658 7.84873V6.89612C3.83231 6.79183 3.84936 6.68778 3.88665 6.59049C3.92395 6.4932 3.98068 6.40479 4.05329 6.3308C4.12591 6.25681 4.21282 6.19885 4.30859 6.16056C4.40435 6.12227 4.50689 6.10447 4.60976 6.10829C5.21282 6.10829 5.81715 6.11987 6.41894 6.10829C7.40513 6.09398 8.38274 5.92015 9.31488 5.59336C9.56859 5.50733 9.80854 5.38416 10.0271 5.22777C10.0929 5.18873 10.1499 5.13633 10.1947 5.07385C10.2395 5.01138 10.271 4.94018 10.2874 4.86475ZM10.2785 5.67446C10.1515 5.74784 10.0246 5.82251 9.90525 5.88558C9.42647 6.1147 8.9203 6.27957 8.39951 6.37605C7.81383 6.49884 7.2195 6.5746 6.62207 6.60262L6.31991 6.61806V8.12679H6.358C6.71094 8.15383 7.06516 8.17442 7.41684 8.20918C7.94322 8.26223 8.46404 8.36173 8.97336 8.50655C9.40232 8.6155 9.81273 8.78907 10.1909 9.02147L10.2722 9.07168L10.2785 5.67446ZM5.82096 8.12808C5.82169 8.11393 5.82169 8.09975 5.82096 8.0856C5.82096 7.61444 5.82096 7.142 5.82096 6.66956C5.82096 6.61163 5.78795 6.6142 5.74986 6.6142H4.60722C4.56899 6.60979 4.53027 6.61425 4.49398 6.62724C4.4577 6.64023 4.4248 6.66142 4.39777 6.68919C4.37075 6.71697 4.3503 6.75061 4.33798 6.78757C4.32565 6.82453 4.32178 6.86385 4.32664 6.90256V7.83328C4.3195 7.87512 4.32267 7.91809 4.33588 7.95838C4.34908 7.99867 4.3719 8.03502 4.40232 8.0642C4.43273 8.09339 4.46979 8.11449 4.51019 8.12563C4.55059 8.13678 4.59309 8.13762 4.63389 8.12808C4.90939 8.12808 5.18616 8.12808 5.46166 8.12808H5.82096ZM4.93224 8.63142C4.93224 8.64944 4.93224 8.65845 4.93859 8.66617C5.03889 8.97384 5.13919 9.28151 5.24329 9.58789C5.24962 9.59945 5.25855 9.60933 5.26936 9.61671C5.28018 9.62409 5.29256 9.62878 5.3055 9.63037C5.39057 9.63037 5.47563 9.63037 5.55942 9.63037H5.72193C5.61274 9.29696 5.50864 8.97899 5.40199 8.66231C5.39803 8.65371 5.392 8.64626 5.38446 8.64063C5.37692 8.63501 5.3681 8.6314 5.35882 8.63013C5.22425 8.63013 5.08459 8.63142 4.93605 8.63142H4.93224ZM10.7787 7.79467C10.8606 7.74794 10.9272 7.67794 10.9703 7.5933C11.0134 7.50866 11.0311 7.41309 11.0212 7.31836C11.0146 7.24243 10.9888 7.1695 10.9463 7.10659C10.9039 7.04369 10.8461 6.99293 10.7787 6.9592V7.79467Z" fill="url(#paint2_linear_124_68)"/>
<defs>
<linearGradient id="paint0_linear_124_68" x1="0.243788" y1="1.71252" x2="16.4191" y2="8.56859" gradientUnits="userSpaceOnUse">
<stop stop-color="#F8693C"/>
<stop offset="1" stop-color="#8A0D8C" stop-opacity="0.99"/>
</linearGradient>
<linearGradient id="paint1_linear_124_68" x1="1.92117" y1="2.84844" x2="14.584" y2="8.01841" gradientUnits="userSpaceOnUse">
<stop stop-color="#F8693C"/>
<stop offset="1" stop-color="#8A0D8C" stop-opacity="0.99"/>
</linearGradient>
<linearGradient id="paint2_linear_124_68" x1="3.95798" y1="5.46597" x2="10.9543" y2="9.69441" gradientUnits="userSpaceOnUse">
<stop stop-color="#F8693C"/>
<stop offset="1" stop-color="#8A0D8C" stop-opacity="0.99"/>
</linearGradient>
</defs>
</svg>
