<svg width="20" height="20" viewBox="0 0 20 20" fill="none" xmlns="http://www.w3.org/2000/svg">
<path d="M9 3.99996C8.237 3.99996 7.525 4.21296 6.918 4.58396C6.85526 4.24837 6.74091 3.92453 6.579 3.62396C7.34029 3.20266 8.19835 2.98732 9.06836 2.99921C9.93838 3.01111 10.7902 3.24984 11.5397 3.69179C12.2892 4.13375 12.9104 4.76364 13.3419 5.51921C13.7734 6.27478 14.0002 7.12987 14 7.99996H16.501C16.8987 8.00023 17.2799 8.15838 17.561 8.43965C17.8421 8.72093 18 9.10231 18 9.49996V15.5C18 15.8978 17.842 16.2793 17.5607 16.5606C17.2794 16.8419 16.8978 17 16.5 17H10.5C10.1022 17 9.72064 16.8419 9.43934 16.5606C9.15804 16.2793 9 15.8978 9 15.5V13C8.30438 13.0008 7.61629 12.8561 6.98 12.575C6.993 12.235 7 11.878 7 11.5V11.465C7.588 11.805 8.271 12 9 12V9.49996C9 9.10214 9.15804 8.7206 9.43934 8.4393C9.72064 8.158 10.1022 7.99996 10.5 7.99996H13C13 6.93909 12.5786 5.92168 11.8284 5.17153C11.0783 4.42139 10.0609 3.99996 9 3.99996ZM13.9 8.99996C13.7033 9.96053 13.2289 10.8422 12.5355 11.5355C11.8422 12.2288 10.9606 12.7033 10 12.9V15.5C10 15.6326 10.0527 15.7597 10.1464 15.8535C10.2402 15.9473 10.3674 16 10.5 16H16.5C16.6326 16 16.7598 15.9473 16.8536 15.8535C16.9473 15.7597 17 15.6326 17 15.5V9.49996C17 9.36735 16.9473 9.24017 16.8536 9.14641C16.7598 9.05264 16.6326 8.99996 16.5 8.99996H13.9ZM12.874 8.99996H10.5C10.3674 8.99996 10.2402 9.05264 10.1464 9.14641C10.0527 9.24017 10 9.36735 10 9.49996V11.874C10.6918 11.6947 11.3231 11.3337 11.8284 10.8284C12.3338 10.3231 12.6948 9.69177 12.874 8.99996ZM4.581 2.12496C4.664 2.19756 4.72068 2.29557 4.7422 2.40372C4.76372 2.51188 4.74889 2.62411 4.7 2.72296C4.69153 2.75222 4.68716 2.7825 4.687 2.81296C4.687 2.87596 4.703 2.99596 4.854 3.14596C4.927 3.21896 4.983 3.27096 5.044 3.32796C5.094 3.37396 5.147 3.42196 5.214 3.48796C5.344 3.61196 5.481 3.75796 5.604 3.94096C5.859 4.32396 6 4.80296 6 5.49996C6 6.35296 5.684 7.07996 5.191 7.52596L5.255 7.59996C5.535 7.94396 5.698 8.38996 5.8 8.82996C6 9.69996 6 10.746 6 11.475V11.5C6 14.287 5.621 15.868 5.204 16.772C4.994 17.227 4.771 17.517 4.578 17.699C4.49953 17.7742 4.41301 17.8406 4.32 17.897C4.27741 17.9226 4.23295 17.945 4.187 17.964C4.187 17.964 4.074 18 4 18C3.926 18 3.813 17.964 3.813 17.964C3.76655 17.9461 3.72199 17.9237 3.68 17.897C3.58699 17.8406 3.50047 17.7742 3.422 17.699C3.229 17.516 3.006 17.227 2.796 16.772C2.379 15.868 2 14.287 2 11.5V11.475C2 10.745 2 9.69996 2.2 8.82996C2.302 8.38996 2.465 7.94396 2.745 7.59996C2.765 7.57496 2.787 7.54996 2.809 7.52596C2.316 7.07996 2 6.35296 2 5.49996C2 5.17396 2.087 4.78496 2.207 4.42596C2.327 4.06596 2.495 3.69396 2.689 3.39396C2.92 3.00396 3.245 2.67696 3.497 2.45696C3.63516 2.33546 3.77934 2.22098 3.929 2.11396L3.959 2.09396L3.968 2.08696L3.971 2.08496L3.973 2.08396C4.0647 2.02284 4.17402 1.99372 4.28397 2.00113C4.39392 2.00855 4.49834 2.05208 4.581 2.12496ZM4 6.99996C4.387 6.99896 5 6.56996 5 5.49996C5 4.94696 4.891 4.67596 4.771 4.49596C4.69804 4.39083 4.61388 4.29393 4.52 4.20696L4.396 4.09096C4.315 4.01496 4.22 3.92696 4.146 3.85396C4.03663 3.74573 3.94274 3.6229 3.867 3.48896C3.73971 3.6228 3.62769 3.77037 3.533 3.92896C3.393 4.14396 3.257 4.43896 3.156 4.74296C3.052 5.05296 3 5.32696 3 5.49996C3 6.57196 3.615 6.99996 4 6.99996ZM3.52 8.23196C3.378 8.40496 3.26 8.68096 3.174 9.05496C3.002 9.80296 3 10.743 3 11.5C3 14.213 3.371 15.632 3.704 16.353C3.814 16.59 3.917 16.748 4 16.853C4.11815 16.6986 4.21752 16.5308 4.296 16.353C4.629 15.632 5 14.213 5 11.5C5 10.743 4.998 9.80296 4.825 9.05496C4.739 8.68096 4.621 8.40496 4.48 8.23196C4.42484 8.15722 4.35231 8.09704 4.26868 8.05662C4.18505 8.0162 4.09283 7.99675 4 7.99996H3.998C3.90549 7.99699 3.81364 8.01656 3.73037 8.05698C3.6471 8.09739 3.5749 8.15744 3.52 8.23196Z" fill="url(#paint0_linear_123_13)"/>
<defs>
<linearGradient id="paint0_linear_123_13" x1="2.25397" y1="3.82668" x2="19.224" y2="10.8516" gradientUnits="userSpaceOnUse">
<stop stop-color="#F8693C"/>
<stop offset="1" stop-color="#8A0D8C" stop-opacity="0.99"/>
</linearGradient>
</defs>
</svg>
