<svg width="16" height="16" viewBox="0 0 16 16" fill="none" xmlns="http://www.w3.org/2000/svg">
<path d="M12.333 12.6667H14.5333C14.6571 12.6667 14.7758 12.6175 14.8633 12.53C14.9508 12.4425 15 12.3238 15 12.2V7.22222C15 6.3971 14.6722 5.60578 14.0888 5.02233C13.5053 4.43889 12.714 4.11111 11.8889 4.11111H4.11111C3.28599 4.11111 2.49467 4.43889 1.91122 5.02233C1.32778 5.60578 1 6.3971 1 7.22222V12.2C1 12.3238 1.04917 12.4425 1.13668 12.53C1.2242 12.6175 1.3429 12.6667 1.46667 12.6667H3.667M4.88889 4.11111V1.46667C4.88889 1.3429 4.93806 1.2242 5.02557 1.13668C5.11309 1.04917 5.23179 1 5.35556 1H10.6444C10.7682 1 10.8869 1.04917 10.9744 1.13668C11.0619 1.2242 11.1111 1.3429 11.1111 1.46667V4.11111" stroke="url(#paint0_linear_123_33)" stroke-width="1.5"/>
<path d="M3.409 14.4672L3.66567 12.6667L4.053 9.9561C4.06892 9.84491 4.1244 9.74319 4.20926 9.66961C4.29413 9.59603 4.40268 9.55553 4.515 9.55554H11.4839C11.5962 9.55553 11.7048 9.59603 11.7896 9.66961C11.8745 9.74319 11.93 9.84491 11.9459 9.9561L12.3317 12.6667L12.5891 14.4672C12.5986 14.5334 12.5937 14.6009 12.5749 14.665C12.556 14.7292 12.5235 14.7885 12.4797 14.8391C12.4359 14.8896 12.3818 14.9301 12.3209 14.9579C12.2601 14.9856 12.194 15 12.1271 15H3.871C3.80413 15 3.73804 14.9856 3.6772 14.9579C3.61636 14.9301 3.56221 14.8896 3.51839 14.8391C3.47458 14.7885 3.44214 14.7292 3.42327 14.665C3.40439 14.6009 3.39953 14.5334 3.409 14.4672Z" stroke="url(#paint1_linear_123_33)" stroke-width="1.5"/>
<path d="M11.8887 6.45228L11.8964 6.44373" stroke="url(#paint2_linear_123_33)" stroke-width="1.5" stroke-linecap="round" stroke-linejoin="round"/>
<defs>
<linearGradient id="paint0_linear_123_33" x1="1.22222" y1="2.33196" x2="15.173" y2="9.26206" gradientUnits="userSpaceOnUse">
<stop stop-color="#F8693C"/>
<stop offset="1" stop-color="#8A0D8C" stop-opacity="0.99"/>
</linearGradient>
<linearGradient id="paint1_linear_123_33" x1="3.55016" y1="10.1771" x2="11.2218" y2="15.5374" gradientUnits="userSpaceOnUse">
<stop stop-color="#F8693C"/>
<stop offset="1" stop-color="#8A0D8C" stop-opacity="0.99"/>
</linearGradient>
<linearGradient id="paint2_linear_123_33" x1="11.8888" y1="6.4447" x2="11.8973" y2="6.44789" gradientUnits="userSpaceOnUse">
<stop stop-color="#F8693C"/>
<stop offset="1" stop-color="#8A0D8C" stop-opacity="0.99"/>
</linearGradient>
</defs>
</svg>
