<svg width="20" height="15" viewBox="0 0 20 15" fill="none" xmlns="http://www.w3.org/2000/svg">
<path d="M4.45474 3.07983C4.46795 2.84197 4.47996 2.61243 4.49196 2.38409C4.50757 2.10936 4.52078 1.83344 4.53519 1.55752C4.5349 1.4817 4.55028 1.40663 4.58039 1.33692C4.61051 1.26721 4.65471 1.20435 4.71028 1.15221C4.76585 1.10006 4.83161 1.05974 4.90351 1.03372C4.97541 1.00771 5.05193 0.996545 5.12835 1.00093C5.41652 1.00093 5.70469 1.00093 5.99407 1.00093H14.5672C14.6153 1.00093 14.6633 1.00093 14.7113 1.00093C14.8543 1.00057 14.9917 1.05561 15.0943 1.15428C15.1968 1.25295 15.2563 1.38743 15.2601 1.52898C15.2877 2.0047 15.3117 2.47329 15.3369 2.94544C15.3369 2.98587 15.3429 3.02631 15.3453 3.07507C15.3861 3.07507 15.4198 3.07507 15.4534 3.07507C15.9121 3.07507 16.3695 3.07507 16.827 3.07507C16.9524 3.07154 17.0772 3.09394 17.1934 3.14083C17.3096 3.18772 17.4146 3.25808 17.5018 3.34742C17.9021 3.74386 18.3023 4.14346 18.7025 4.54624C18.7922 4.63526 18.8627 4.7413 18.91 4.85799C18.9572 4.97469 18.9802 5.09963 18.9775 5.22533C18.9775 6.11968 18.9775 7.00928 18.9775 7.90958C18.9775 8.26637 18.7638 8.47926 18.406 8.48045H16.8786C16.8786 8.52802 16.8786 8.57084 16.8786 8.61365C16.8786 10.3683 16.8786 12.1229 16.8786 13.8775C16.8786 13.975 16.8534 14.0048 16.7586 13.9964C16.6205 13.9893 16.4824 13.9964 16.3443 13.9964C16.2661 13.9836 16.194 13.9468 16.1382 13.891C16.0823 13.8353 16.0456 13.7636 16.0333 13.686C16.0333 12.9903 16.0333 12.2957 16.0333 11.6012C16.0333 11.5096 16.0069 11.4822 15.9133 11.4822C11.894 11.4822 7.876 11.4822 3.85918 11.4822C3.76432 11.4822 3.73911 11.5096 3.73911 11.6012C3.73911 12.2993 3.73911 12.9974 3.73911 13.6955C3.73128 13.7743 3.69591 13.8478 3.63911 13.9034C3.58232 13.959 3.50768 13.9932 3.42812 14C3.29004 14 3.15195 13.9929 3.01387 14C2.92262 14 2.8938 13.9667 2.8938 13.8811C2.8938 12.863 2.8938 11.8446 2.8938 10.8258C2.8938 10.0836 2.8938 9.3415 2.8938 8.59819C2.8938 8.5078 2.87098 8.47926 2.77373 8.47926C2.38349 8.47926 1.99205 8.47926 1.60062 8.47926C1.20918 8.47926 1.00026 8.26043 1.00026 7.88461C1.00026 7.02474 1.00026 6.16488 1.00026 5.30501C0.996959 5.15234 1.02555 5.00064 1.08423 4.85943C1.14291 4.71821 1.23042 4.59053 1.34126 4.48439C1.71949 4.11333 2.09171 3.73751 2.46634 3.36407C2.55851 3.26713 2.67036 3.19062 2.79454 3.13958C2.91871 3.08854 3.05239 3.06412 3.18677 3.06794C3.5638 3.07507 3.94203 3.06794 4.32026 3.06794L4.45474 3.07983ZM9.79076 11.3966H16.2591C16.3887 11.3966 16.3995 11.3966 16.3911 11.2622C16.3563 10.7247 16.3347 10.1847 16.2711 9.65072C16.1906 8.92188 16.0295 8.20399 15.7908 7.50998C15.7403 7.36369 15.7091 7.34348 15.5506 7.34348H4.0525C3.87239 7.34348 3.84957 7.36013 3.78954 7.5302C3.78113 7.55398 3.77273 7.57777 3.76552 7.60274C3.39809 8.78678 3.20716 10.0176 3.19878 11.2563C3.19878 11.3978 3.19878 11.3978 3.34167 11.3978L9.79076 11.3966ZM18.0265 8.37579H18.4144C18.4746 8.38125 18.5353 8.37354 18.5922 8.35319C18.6491 8.33285 18.7008 8.30037 18.7437 8.25805C18.7865 8.21574 18.8194 8.16462 18.8401 8.10831C18.8608 8.052 18.8688 7.99187 18.8634 7.93218C18.8634 7.0402 18.8634 6.14823 18.8634 5.25625C18.8634 4.92681 18.6785 4.74842 18.3459 4.74842H1.79153C1.71529 4.74067 1.63844 4.74067 1.56219 4.74842C1.47677 4.76203 1.39505 4.79279 1.32205 4.83881C1.25715 4.88477 1.20483 4.94603 1.16982 5.01704C1.13481 5.08805 1.11821 5.16659 1.12153 5.24555C1.12153 5.56904 1.12153 5.89372 1.12153 6.21721C1.12153 6.78807 1.12153 7.35894 1.12153 7.9298C1.11826 7.98886 1.12756 8.04794 1.14881 8.10321C1.17007 8.15849 1.20282 8.20872 1.24493 8.25065C1.28704 8.29259 1.33758 8.32529 1.39327 8.34665C1.44896 8.368 1.50856 8.37752 1.5682 8.3746H2.05809V8.24259C2.05809 7.8299 2.05809 7.41721 2.05809 7.00572C2.05228 6.88341 2.07231 6.76124 2.11688 6.64703C2.16145 6.53282 2.2296 6.42909 2.31695 6.34245C2.40431 6.25581 2.50896 6.18818 2.6242 6.14389C2.73945 6.09959 2.86276 6.0796 2.98625 6.08519C7.65227 6.09233 12.3179 6.09233 16.9831 6.08519C17.0239 6.08519 17.0659 6.08519 17.1032 6.08519C17.2252 6.08565 17.346 6.11008 17.4585 6.15707C17.571 6.20406 17.6729 6.27267 17.7585 6.35894C17.844 6.44521 17.9114 6.54742 17.9568 6.65967C18.0022 6.77191 18.0247 6.89195 18.0229 7.01285V8.36984L18.0265 8.37579ZM15.2276 3.07507C15.2291 3.05846 15.2291 3.04174 15.2276 3.02512C15.2 2.51848 15.1736 2.01065 15.1448 1.504C15.1372 1.40164 15.0898 1.30616 15.0127 1.2376C14.9617 1.19163 14.9017 1.15651 14.8364 1.13442C14.7712 1.11233 14.702 1.10373 14.6333 1.10916H5.06951C4.95772 1.11031 4.85067 1.15408 4.77062 1.23138C4.69057 1.30868 4.64366 1.41356 4.63965 1.52422L4.56401 2.96922C4.56401 3.00252 4.56401 3.03583 4.56401 3.07388L15.2276 3.07507ZM1.33526 4.67825C1.45177 4.65943 1.5692 4.64673 1.68707 4.64019C7.03189 4.64019 12.3763 4.64019 17.7203 4.64019C18.0385 4.64019 18.3615 4.5843 18.6905 4.70204C18.6569 4.66041 18.6377 4.63187 18.6137 4.60689L17.4214 3.41759C17.1812 3.17973 16.875 3.16427 16.5436 3.19638C16.6157 3.28082 16.6757 3.35456 16.7394 3.42473C16.774 3.45263 16.7985 3.49088 16.8093 3.53376C16.8202 3.57664 16.8167 3.62184 16.7994 3.66259C16.7792 3.70597 16.7463 3.74233 16.705 3.76694C16.6637 3.79155 16.6158 3.80326 16.5676 3.80055H3.35968C3.30829 3.80729 3.25608 3.79738 3.21085 3.7723C3.16562 3.74722 3.12979 3.70831 3.10873 3.6614C3.09022 3.61686 3.08689 3.56757 3.09924 3.52099C3.11159 3.47441 3.13895 3.43309 3.17717 3.40332C3.23721 3.33672 3.29724 3.26774 3.36088 3.19162C2.99346 3.14881 2.76892 3.22492 2.53838 3.45684C2.2286 3.76962 1.91761 4.08003 1.60782 4.39282C1.51537 4.49391 1.42291 4.58905 1.33526 4.67825ZM10.0069 6.61562H3.07511C3.02944 6.61122 2.98335 6.616 2.9396 6.62966C2.89584 6.64332 2.85532 6.66558 2.82045 6.69512C2.78559 6.72466 2.7571 6.76086 2.73669 6.80156C2.71628 6.84225 2.70437 6.88661 2.70168 6.93198C2.69328 7.20433 2.69328 7.47787 2.70168 7.75022C2.70717 7.8352 2.74509 7.91493 2.80775 7.97324C2.87041 8.03155 2.95311 8.06406 3.03909 8.06419C3.17477 8.06419 3.30925 8.06419 3.44373 8.06419C3.49776 8.06419 3.52058 8.04516 3.53619 7.99284C3.58421 7.8192 3.63705 7.64556 3.69348 7.47311C3.69933 7.43509 3.71272 7.3986 3.73288 7.36573C3.75303 7.33287 3.77956 7.30428 3.81092 7.28161C3.84229 7.25895 3.87787 7.24266 3.91562 7.23368C3.95338 7.2247 3.99255 7.22321 4.03088 7.2293H15.5662C15.6411 7.21901 15.717 7.23814 15.7779 7.28259C15.8387 7.32703 15.8795 7.39328 15.8916 7.46716C15.9469 7.63922 15.9985 7.81285 16.0465 7.98808C16.0478 8.00033 16.0517 8.01219 16.0578 8.02292C16.0639 8.03366 16.0721 8.04304 16.082 8.0505C16.0919 8.05797 16.1032 8.06335 16.1153 8.06631C16.1274 8.06928 16.1399 8.06977 16.1522 8.06776C16.4019 8.06776 16.6517 8.06776 16.9014 8.06776C17.1512 8.06776 17.2845 7.9417 17.2857 7.68718C17.2857 7.45884 17.2857 7.23049 17.2857 7.00215C17.2857 6.7405 17.1596 6.61681 16.8978 6.61681L10.0069 6.61562ZM17.9173 8.37579C17.9173 8.34844 17.9257 8.33298 17.9257 8.31751C17.9257 7.8632 17.9257 7.41008 17.9257 6.95576C17.9204 6.77766 17.848 6.60796 17.7227 6.48004C17.6338 6.38443 17.5245 6.30947 17.4029 6.26054C17.2813 6.21161 17.1502 6.18991 17.0191 6.19699C12.3371 6.19699 7.65427 6.19699 2.97064 6.19699C2.86261 6.19238 2.7548 6.21017 2.65411 6.2492C2.55342 6.28823 2.46206 6.34766 2.38588 6.42367C2.30971 6.49968 2.25039 6.5906 2.21173 6.69063C2.17306 6.79065 2.15591 6.89756 2.16136 7.00453C2.16856 7.42673 2.16136 7.84893 2.16136 8.27113C2.16136 8.30443 2.16136 8.33773 2.16136 8.37698H3.26842C3.44733 8.37698 3.44733 8.37698 3.46774 8.19621C3.46774 8.19621 3.46774 8.19621 3.46774 8.17718H3.0595C2.99732 8.17908 2.93538 8.16864 2.87734 8.14645C2.81931 8.12426 2.76634 8.09079 2.72158 8.048C2.67681 8.00521 2.64115 7.95398 2.6167 7.89732C2.59225 7.84066 2.5795 7.77972 2.57921 7.71811C2.57441 7.46756 2.57441 7.21701 2.57921 6.96647C2.57916 6.90481 2.59169 6.84377 2.61604 6.78702C2.64039 6.73028 2.67606 6.67898 2.72091 6.63622C2.76576 6.59346 2.81887 6.56012 2.87706 6.53818C2.93524 6.51625 2.99729 6.50618 3.0595 6.50859H16.9375C16.9954 6.50587 17.0534 6.51469 17.1079 6.53451C17.1623 6.55434 17.2123 6.58477 17.2547 6.62401C17.2971 6.66325 17.3311 6.7105 17.3548 6.76299C17.3785 6.81547 17.3913 6.87213 17.3925 6.9296C17.403 7.20552 17.403 7.48302 17.3925 7.76211C17.3905 7.81949 17.3771 7.87591 17.353 7.92813C17.3289 7.98034 17.2945 8.02731 17.252 8.06633C17.2095 8.10535 17.1596 8.13565 17.1052 8.1555C17.0508 8.17534 16.993 8.18432 16.9351 8.18193H16.1162C16.1378 8.38293 16.1378 8.38293 16.3167 8.38174H17.9173V8.37579ZM9.95406 3.69946H16.4764C16.511 3.70485 16.5462 3.70485 16.5809 3.69946C16.6253 3.68281 16.6829 3.66021 16.7009 3.62334C16.7058 3.60141 16.7058 3.5787 16.7011 3.55674C16.6963 3.53479 16.6868 3.51411 16.6733 3.49608C16.6241 3.42235 16.5532 3.3605 16.5076 3.28677C16.4857 3.25249 16.4545 3.22503 16.4175 3.20757C16.3806 3.1901 16.3394 3.18334 16.2987 3.18806C12.149 3.18806 7.99928 3.18806 3.84957 3.18806C3.7295 3.18806 3.58902 3.15713 3.48936 3.20708C3.38877 3.28082 3.30662 3.37644 3.24921 3.48657C3.23384 3.50667 3.22317 3.5299 3.21798 3.55458C3.21279 3.57926 3.2132 3.60478 3.21919 3.62929C3.23721 3.66497 3.30325 3.68756 3.35127 3.69708C3.41199 3.70244 3.47307 3.70244 3.53378 3.69708L9.95406 3.69946ZM16.7682 11.1837V8.72782C16.7682 8.67787 16.7682 8.62673 16.7682 8.57559C16.7754 8.50542 16.7478 8.47926 16.6757 8.48402C16.5925 8.48818 16.5092 8.48818 16.426 8.48402C16.3671 8.48402 16.3479 8.50661 16.3479 8.56251C16.3479 8.74685 16.3479 8.93119 16.3479 9.11435C16.3431 9.19793 16.3431 9.28171 16.3479 9.36529C16.3683 9.56153 16.4092 9.75538 16.4224 9.95043C16.4548 10.4059 16.4764 10.8626 16.5016 11.3181C16.5016 11.3907 16.4896 11.4561 16.4152 11.4822C16.3934 11.4879 16.3747 11.5017 16.3633 11.5209C16.3518 11.5401 16.3484 11.5629 16.3539 11.5845C16.3539 11.6036 16.3539 11.6226 16.3539 11.6416V13.755C16.3539 13.8858 16.3539 13.8858 16.4908 13.8858H16.6349C16.7718 13.8858 16.7718 13.8858 16.7718 13.755L16.7682 11.1837ZM3.40651 8.50186C3.3933 8.49353 3.3885 8.48759 3.38249 8.48759H3.14235C3.00907 8.48759 3.00907 8.48759 3.00907 8.62198V13.6575C3.00907 13.8882 3.00907 13.8882 3.24921 13.8882C3.27159 13.8864 3.29408 13.8864 3.31645 13.8882C3.41131 13.9025 3.43653 13.8609 3.43653 13.7693C3.43653 13.0557 3.43653 12.3421 3.43653 11.6285C3.43653 11.4965 3.43653 11.4965 3.30084 11.4965C3.14595 11.4965 3.09792 11.4501 3.09912 11.3003C3.10617 10.5227 3.18089 9.74719 3.32246 8.98233C3.34407 8.82059 3.37529 8.66003 3.40651 8.50186ZM16.1978 13.8537L16.2362 13.8406C16.2369 13.8284 16.2369 13.816 16.2362 13.8038C16.2362 13.0616 16.2362 12.3195 16.2362 11.5774C16.2362 11.5512 16.205 11.5048 16.1846 11.5025C16.1186 11.4953 16.1342 11.5536 16.1342 11.5905C16.1342 12.291 16.1342 12.9927 16.1342 13.6932C16.1469 13.7492 16.1683 13.803 16.1978 13.8525V13.8537ZM3.53499 13.8537C3.56783 13.8383 3.59511 13.8133 3.61315 13.782C3.63118 13.7507 3.63911 13.7147 3.63585 13.6789C3.63585 12.9855 3.63585 12.291 3.63585 11.5976C3.63831 11.585 3.63831 11.5721 3.63585 11.5596C3.62132 11.5367 3.60527 11.5149 3.58782 11.4941C3.56903 11.5128 3.55251 11.5335 3.53859 11.556C3.53434 11.578 3.53434 11.6006 3.53859 11.6226V13.8537H3.53499Z" fill="#1E1E1E" stroke="url(#paint0_linear_123_16)" stroke-width="0.215244" stroke-miterlimit="10"/>
<path d="M9.93399 5.78423C9.76829 5.78423 9.60139 5.78423 9.43569 5.78423C9.40445 5.7888 9.37257 5.78608 9.34258 5.7763C9.31259 5.76652 9.28532 5.74994 9.26293 5.72789C9.24055 5.70583 9.22367 5.6789 9.21364 5.64925C9.20361 5.6196 9.2007 5.58803 9.20515 5.55707C9.20515 5.42982 9.20515 5.30375 9.20515 5.1765C9.20136 5.14705 9.2042 5.11714 9.21346 5.08892C9.22273 5.06069 9.23819 5.03485 9.25874 5.01324C9.27929 4.99164 9.30442 4.97481 9.33231 4.96397C9.36021 4.95312 9.39018 4.94853 9.42008 4.95053C9.76829 4.95053 10.1169 4.95053 10.4659 4.95053C10.4949 4.94866 10.524 4.95308 10.5511 4.96346C10.5783 4.97384 10.6028 4.98994 10.623 5.01064C10.6432 5.03135 10.6587 5.05616 10.6682 5.08336C10.6778 5.11057 10.6813 5.1395 10.6784 5.16817C10.6784 5.30137 10.6784 5.43457 10.6784 5.56778C10.6811 5.59728 10.6771 5.627 10.6668 5.6548C10.6564 5.68259 10.64 5.70776 10.6186 5.72847C10.5972 5.74919 10.5715 5.76494 10.5432 5.77458C10.5149 5.78423 10.4848 5.78752 10.4551 5.78423C10.2822 5.78423 10.1093 5.78423 9.93639 5.78423H9.93399ZM9.93399 5.05757H9.43089C9.35284 5.05757 9.31081 5.09087 9.31081 5.1765C9.31081 5.30613 9.31081 5.43576 9.31081 5.56659C9.30811 5.58281 9.30935 5.59943 9.31443 5.61509C9.31951 5.63074 9.32828 5.64497 9.34002 5.65659C9.35175 5.66822 9.36612 5.6769 9.38192 5.68193C9.39772 5.68696 9.41451 5.68819 9.43089 5.68552H10.4575C10.5368 5.68552 10.5776 5.64508 10.5776 5.56659C10.5776 5.44766 10.5776 5.3204 10.5776 5.19671C10.5776 5.09443 10.5488 5.06708 10.4455 5.06589C10.2726 5.05638 10.1057 5.05757 9.93999 5.05757H9.93399Z" fill="#1E1E1E" stroke="url(#paint1_linear_123_16)" stroke-width="0.215244" stroke-miterlimit="10"/>
<path d="M11.7201 5.78433C11.5532 5.78433 11.3875 5.78433 11.2206 5.78433C11.1893 5.78843 11.1576 5.78536 11.1277 5.77533C11.0978 5.76531 11.0707 5.74861 11.0484 5.72653C11.0261 5.70445 11.0093 5.67758 10.9991 5.648C10.989 5.61843 10.9859 5.58694 10.9901 5.55598C10.9901 5.42912 10.9901 5.30187 10.9901 5.17422C10.9864 5.14481 10.9894 5.11496 10.9988 5.08684C11.0083 5.05872 11.0239 5.03303 11.0446 5.01163C11.0653 4.99023 11.0905 4.97365 11.1184 4.9631C11.1464 4.95255 11.1764 4.94829 11.2062 4.95063C11.552 4.95063 11.899 4.95063 12.2448 4.95063C12.2739 4.94824 12.3031 4.95219 12.3304 4.9622C12.3578 4.97221 12.3825 4.98803 12.403 5.00855C12.4235 5.02908 12.4392 5.0538 12.449 5.08099C12.4588 5.10817 12.4625 5.13715 12.4598 5.16589C12.4598 5.29909 12.4598 5.4323 12.4598 5.5655C12.463 5.59502 12.4595 5.62487 12.4495 5.65288C12.4396 5.68088 12.4234 5.70632 12.4022 5.72731C12.381 5.7483 12.3553 5.76432 12.327 5.77419C12.2988 5.78406 12.2686 5.78752 12.2388 5.78433C12.0659 5.78433 11.893 5.78433 11.7201 5.78433ZM11.7273 5.05767C11.5616 5.05767 11.3947 5.05767 11.2278 5.05767C11.1414 5.05767 11.0969 5.08859 11.0993 5.1766C11.0993 5.30385 11.0993 5.43111 11.0993 5.55717C11.0993 5.63686 11.1342 5.6761 11.2194 5.6761H12.2364C12.3217 5.6761 12.3565 5.63567 12.3565 5.55717C12.3565 5.43824 12.3565 5.31931 12.3565 5.20038C12.3565 5.08145 12.3289 5.06599 12.2196 5.0648C12.0539 5.05648 11.8906 5.05767 11.7273 5.05767Z" fill="#1E1E1E" stroke="url(#paint2_linear_123_16)" stroke-width="0.215244" stroke-miterlimit="10"/>
<path d="M8.64682 5.44653C8.64687 5.4789 8.64025 5.51094 8.62736 5.54068C8.61447 5.57043 8.59559 5.59726 8.57188 5.61952C8.54816 5.64179 8.5201 5.65903 8.48943 5.67018C8.45875 5.68134 8.42609 5.68617 8.39347 5.68439C8.33053 5.68204 8.27082 5.65622 8.22629 5.61211C8.18176 5.56801 8.1557 5.50886 8.15332 5.44653C8.15393 5.38089 8.18037 5.31807 8.22701 5.27144C8.27365 5.2248 8.33681 5.19801 8.40307 5.19678C8.46868 5.19834 8.53103 5.22541 8.57665 5.27215C8.62226 5.31889 8.64747 5.38153 8.64682 5.44653ZM8.53875 5.44653C8.53891 5.42831 8.53543 5.41025 8.5285 5.39337C8.52157 5.3765 8.51133 5.36115 8.49838 5.34821C8.48543 5.33527 8.47003 5.325 8.45305 5.318C8.43607 5.31099 8.41786 5.30738 8.39947 5.30738C8.38035 5.30737 8.36142 5.31118 8.34382 5.3186C8.32623 5.32603 8.31034 5.3369 8.2971 5.35057C8.28386 5.36423 8.27355 5.38042 8.2668 5.39813C8.26004 5.41585 8.25697 5.43474 8.25778 5.45367C8.25824 5.47184 8.26236 5.48973 8.26988 5.50631C8.27741 5.52289 8.28819 5.53781 8.30161 5.55022C8.31502 5.56262 8.3308 5.57225 8.34801 5.57854C8.36523 5.58483 8.38354 5.58767 8.40187 5.58687C8.42068 5.58692 8.4393 5.58312 8.45657 5.57572C8.47384 5.56832 8.48938 5.55747 8.50222 5.54386C8.51507 5.53024 8.52494 5.51415 8.53123 5.49658C8.53751 5.47902 8.54007 5.46036 8.53875 5.44177V5.44653Z" fill="#1E1E1E" stroke="url(#paint3_linear_123_16)" stroke-width="0.215244" stroke-miterlimit="10"/>
<path d="M7.7176 5.19556C7.78377 5.19709 7.84676 5.22397 7.89333 5.27054C7.93991 5.31712 7.96644 5.37976 7.96736 5.44531C7.96516 5.51019 7.93718 5.57159 7.8895 5.61613C7.84183 5.66068 7.77832 5.68477 7.7128 5.68317C7.64911 5.68317 7.58803 5.65811 7.54299 5.6135C7.49796 5.5689 7.47266 5.50839 7.47266 5.44531C7.47263 5.38029 7.4982 5.31782 7.54395 5.27118C7.58969 5.22454 7.65199 5.19741 7.7176 5.19556ZM7.85809 5.44055C7.85793 5.42228 7.85414 5.40422 7.84694 5.38739C7.83973 5.37057 7.82925 5.35532 7.81609 5.34251C7.80294 5.3297 7.78736 5.31958 7.77026 5.31273C7.75315 5.30588 7.73485 5.30244 7.7164 5.30259C7.69717 5.30289 7.67819 5.30701 7.66059 5.31469C7.64298 5.32237 7.62711 5.33347 7.6139 5.34732C7.6007 5.36118 7.59043 5.37751 7.5837 5.39536C7.57697 5.41321 7.57391 5.43222 7.57472 5.45126C7.57749 5.48796 7.59459 5.52214 7.62238 5.54657C7.65018 5.57099 7.68649 5.58373 7.72361 5.58208C7.74195 5.58194 7.76007 5.57813 7.77688 5.57086C7.79369 5.56359 7.80883 5.55303 7.8214 5.5398C7.83397 5.52657 7.8437 5.51096 7.85001 5.4939C7.85631 5.47684 7.85906 5.45869 7.85809 5.44055Z" fill="#1E1E1E" stroke="url(#paint4_linear_123_16)" stroke-width="0.215244" stroke-miterlimit="10"/>
<defs>
<linearGradient id="paint0_linear_123_16" x1="1.28536" y1="2.48418" x2="18.1075" y2="12.1143" gradientUnits="userSpaceOnUse">
<stop stop-color="#F8693C"/>
<stop offset="1" stop-color="#8A0D8C" stop-opacity="0.99"/>
</linearGradient>
<linearGradient id="paint1_linear_123_16" x1="9.22656" y1="5.04555" x2="10.4222" y2="5.91926" gradientUnits="userSpaceOnUse">
<stop stop-color="#F8693C"/>
<stop offset="1" stop-color="#8A0D8C" stop-opacity="0.99"/>
</linearGradient>
<linearGradient id="paint2_linear_123_16" x1="11.0117" y1="5.04541" x2="12.2062" y2="5.91636" gradientUnits="userSpaceOnUse">
<stop stop-color="#F8693C"/>
<stop offset="1" stop-color="#8A0D8C" stop-opacity="0.99"/>
</linearGradient>
<linearGradient id="paint3_linear_123_16" x1="8.16115" y1="5.25249" x2="8.68284" y2="5.4709" gradientUnits="userSpaceOnUse">
<stop stop-color="#F8693C"/>
<stop offset="1" stop-color="#8A0D8C" stop-opacity="0.99"/>
</linearGradient>
<linearGradient id="paint4_linear_123_16" x1="7.48051" y1="5.25124" x2="8.00299" y2="5.47063" gradientUnits="userSpaceOnUse">
<stop stop-color="#F8693C"/>
<stop offset="1" stop-color="#8A0D8C" stop-opacity="0.99"/>
</linearGradient>
</defs>
</svg>
