<svg width="16" height="16" viewBox="0 0 16 16" fill="none" xmlns="http://www.w3.org/2000/svg">
<mask id="path-1-inside-1_124_60" fill="white">
<path d="M8 15V9Z"/>
</mask>
<path d="M7.5 15C7.5 15.2761 7.72386 15.5 8 15.5C8.27614 15.5 8.5 15.2761 8.5 15H7.5ZM8.5 9C8.5 8.72386 8.27614 8.5 8 8.5C7.72386 8.5 7.5 8.72386 7.5 9H8.5ZM8.5 15V9H7.5V15H8.5Z" fill="url(#paint0_linear_124_60)" mask="url(#path-1-inside-1_124_60)"/>
<path d="M12.8462 1H3.15385C1.96431 1 1 1.96431 1 3.15385V6.38462C1 7.57415 1.96431 8.53846 3.15385 8.53846H12.8462C14.0357 8.53846 15 7.57415 15 6.38462V3.15385C15 1.96431 14.0357 1 12.8462 1Z" stroke="url(#paint1_linear_124_60)" stroke-linecap="round" stroke-linejoin="round"/>
<defs>
<linearGradient id="paint0_linear_124_60" x1="8.01587" y1="9.68501" x2="9.25237" y2="9.77032" gradientUnits="userSpaceOnUse">
<stop stop-color="#F8693C"/>
<stop offset="1" stop-color="#8A0D8C" stop-opacity="0.99"/>
</linearGradient>
<linearGradient id="paint1_linear_124_60" x1="1.22222" y1="1.86065" x2="12.1543" y2="10.2651" gradientUnits="userSpaceOnUse">
<stop stop-color="#F8693C"/>
<stop offset="1" stop-color="#8A0D8C" stop-opacity="0.99"/>
</linearGradient>
</defs>
</svg>
