<svg width="15" height="16" viewBox="0 0 15 16" fill="none" xmlns="http://www.w3.org/2000/svg">
<g clip-path="url(#clip0_124_74)">
<path d="M10.927 11.2473C10.8361 11.2082 10.7478 11.1632 10.6627 11.1126C10.4393 10.9594 10.217 10.8039 10.0012 10.6386C9.95462 10.5918 9.89353 10.5628 9.82827 10.5564C9.76301 10.55 9.69758 10.5667 9.64302 10.6035C9.53316 10.6773 9.41107 10.7304 9.28264 10.7601C8.94384 10.8181 8.84349 11.047 8.81436 11.3535C8.79386 11.5626 8.74638 11.7695 8.71617 11.9787C8.7128 12.0625 8.67686 12.1416 8.61621 12.1986C8.55556 12.2556 8.47512 12.286 8.39248 12.283C7.7976 12.2896 7.20308 12.2896 6.60892 12.283C6.52707 12.2857 6.44741 12.2559 6.38694 12.1998C6.32647 12.1438 6.28997 12.066 6.28523 11.983C6.23667 11.682 6.19244 11.3798 6.11906 11.0842C6.08179 10.9812 6.00841 10.8959 5.91298 10.8444C5.75976 10.7568 5.57634 10.7229 5.42528 10.632C5.23322 10.5225 5.08864 10.5543 4.92571 10.6889C4.73473 10.8466 4.52433 10.9791 4.32364 11.1269C4.28756 11.1599 4.24525 11.1851 4.19925 11.2011C4.15326 11.217 4.10456 11.2232 4.05611 11.2194C4.00767 11.2156 3.96048 11.2019 3.91744 11.179C3.87439 11.1561 3.83639 11.1246 3.80573 11.0864C3.41406 10.6867 3.02239 10.2882 2.6264 9.89189C2.58964 9.86277 2.55911 9.82636 2.53664 9.78489C2.51417 9.74342 2.50024 9.69774 2.4957 9.65065C2.49116 9.60355 2.4961 9.556 2.51022 9.5109C2.52434 9.46579 2.54735 9.42407 2.57785 9.38827C2.74293 9.15288 2.90154 8.91201 3.07418 8.67991C3.11902 8.63095 3.14612 8.56797 3.15103 8.50132C3.15593 8.43467 3.13834 8.3683 3.10115 8.31313C3.08314 8.28759 3.06963 8.25906 3.06123 8.22883C2.96952 7.63433 2.55735 7.49748 2.04483 7.44821C1.13417 7.35953 1.29602 7.26537 1.28954 6.55482C1.28415 6.14754 1.28954 5.74026 1.28954 5.33298C1.28954 5.03737 1.37802 4.94212 1.65963 4.89504C1.98333 4.8403 2.31565 4.79322 2.63827 4.71768C2.73976 4.6818 2.8244 4.6088 2.87565 4.51294C2.9652 4.34981 3.0062 4.1604 3.09144 3.99727C3.13327 3.93164 3.15189 3.85353 3.14425 3.77576C3.1366 3.69798 3.10315 3.62515 3.04936 3.56919C2.8832 3.3546 2.74077 3.13563 2.58648 2.91667C2.55347 2.88049 2.52808 2.83785 2.51187 2.79138C2.49566 2.7449 2.48896 2.69555 2.49219 2.64636C2.49543 2.59716 2.50852 2.54916 2.53067 2.50527C2.55281 2.46139 2.58356 2.42255 2.62101 2.39114C3.01376 1.99262 3.40435 1.59191 3.80141 1.19777C3.99239 1.00836 4.11216 1.00617 4.33443 1.16273C4.5567 1.31929 4.75739 1.45177 4.95376 1.61599C5.01353 1.67748 5.09346 1.71456 5.17838 1.72021C5.26331 1.72586 5.34732 1.69969 5.41449 1.64665C5.49048 1.59319 5.57637 1.55594 5.66697 1.53717C6.04677 1.48352 6.15575 1.22623 6.18596 0.880262C6.20322 0.678811 6.24854 0.478455 6.28523 0.279194C6.29104 0.199488 6.32762 0.125331 6.38702 0.0728465C6.44642 0.0203616 6.52384 -0.00620762 6.60245 -0.00108486C7.19733 -0.00108486 7.79149 -0.00108486 8.38493 -0.00108486C8.46654 -0.00496417 8.54636 0.0240442 8.60699 0.0796197C8.66763 0.135195 8.70415 0.212833 8.70862 0.295617C8.75933 0.58137 8.81652 0.864934 8.85968 1.15069C8.85918 1.22074 8.88286 1.28876 8.92661 1.34296C8.97036 1.39715 9.03142 1.4341 9.09921 1.44739C9.25189 1.48086 9.39784 1.54047 9.5308 1.62366C9.7466 1.77256 9.92247 1.72438 10.1113 1.56454C10.3001 1.40469 10.4997 1.28207 10.6929 1.13974C10.7263 1.10946 10.7653 1.0863 10.8078 1.07164C10.8502 1.05697 10.895 1.0511 10.9397 1.05436C10.9844 1.05763 11.028 1.06997 11.0679 1.09066C11.1078 1.11134 11.1431 1.13995 11.1719 1.17477C11.5776 1.58205 11.9819 1.99153 12.3847 2.40319C12.4201 2.43411 12.449 2.47195 12.4697 2.51446C12.4903 2.55697 12.5023 2.60327 12.5049 2.65059C12.5075 2.69791 12.5007 2.74528 12.4849 2.78987C12.4691 2.83446 12.4445 2.87535 12.4128 2.9101C12.2585 3.12906 12.1074 3.34803 11.9564 3.56043C11.9275 3.59739 11.9015 3.63656 11.8787 3.67758C11.7762 3.87575 12.1646 4.68374 12.3804 4.72206L13.358 4.89614C13.6147 4.93993 13.7086 5.03956 13.7108 5.30123C13.7108 5.86507 13.7108 6.42891 13.7108 6.99276C13.7163 7.04009 13.7122 7.08807 13.6986 7.13371C13.6851 7.17935 13.6624 7.22167 13.6321 7.25803C13.6017 7.29439 13.5643 7.32402 13.5221 7.34506C13.48 7.3661 13.434 7.37811 13.3871 7.38033C13.0634 7.43507 12.7332 7.48981 12.4041 7.54237C12.3352 7.54541 12.269 7.57074 12.2152 7.61466C12.1614 7.65859 12.1229 7.7188 12.1053 7.78652C12.049 7.96546 11.9768 8.1388 11.8895 8.30438C11.8541 8.36484 11.8387 8.43524 11.8457 8.50521C11.8527 8.57517 11.8817 8.64102 11.9283 8.69304C12.0955 8.91201 12.252 9.15288 12.4106 9.3817C12.4417 9.41702 12.4653 9.45841 12.4801 9.50335C12.4948 9.54828 12.5003 9.5958 12.4963 9.64298C12.4922 9.69015 12.4787 9.73599 12.4566 9.77767C12.4344 9.81935 12.4041 9.85598 12.3674 9.88533C11.9736 10.2828 11.5841 10.6846 11.187 11.0787C11.1062 11.1437 11.0191 11.2001 10.927 11.2473ZM5.13072 9.82401C5.21164 9.8481 5.26559 9.85795 5.31414 9.87876C5.69179 10.0353 6.06943 10.182 6.44168 10.3594C6.5515 10.4231 6.63272 10.5275 6.66827 10.6506C6.73477 10.9242 6.78664 11.2012 6.82364 11.4805C6.82411 11.5076 6.83029 11.5344 6.84176 11.5589C6.85324 11.5834 6.86974 11.6052 6.89018 11.6227C6.91061 11.6402 6.9345 11.6531 6.96024 11.6605C6.98598 11.6679 7.01298 11.6696 7.03944 11.6655C7.34047 11.6655 7.64151 11.6655 7.94254 11.6655C7.97085 11.6706 7.99991 11.6694 8.02769 11.6619C8.05548 11.6545 8.08132 11.6409 8.10341 11.6222C8.1255 11.6036 8.14331 11.5802 8.1556 11.5539C8.16788 11.5275 8.17434 11.4987 8.17452 11.4696C8.21445 11.2068 8.27379 10.9462 8.31048 10.6824C8.31863 10.601 8.3508 10.524 8.40278 10.4615C8.45476 10.399 8.52412 10.3539 8.6018 10.332C8.94815 10.2006 9.28803 10.0539 9.62467 9.90065C9.69932 9.85945 9.78429 9.84152 9.86894 9.84912C9.95359 9.85671 10.0341 9.88949 10.1005 9.94335C10.3163 10.1032 10.5224 10.263 10.7479 10.3999C10.7885 10.4178 10.8327 10.4255 10.8768 10.4225C10.9209 10.4194 10.9637 10.4057 11.0015 10.3824C11.2324 10.1744 11.4417 9.94445 11.665 9.72548C11.7729 9.616 11.7729 9.51965 11.6791 9.39703C11.5291 9.19777 11.3953 8.98646 11.2475 8.78501C11.1903 8.71648 11.1556 8.63154 11.1482 8.54205C11.1409 8.45255 11.1612 8.36296 11.2065 8.28576C11.3578 7.96981 11.4918 7.64561 11.6078 7.31464C11.6332 7.22007 11.6869 7.13584 11.7615 7.07365C11.8361 7.01145 11.928 6.97438 12.0243 6.96758C12.3146 6.92816 12.6027 6.87342 12.8929 6.82744C13.0224 6.80663 13.1033 6.75299 13.1012 6.59971C13.0947 6.29425 13.1012 5.98879 13.1012 5.68333C13.1012 5.52677 13.031 5.46436 12.8854 5.44575C12.5876 5.40524 12.293 5.33626 11.9952 5.29466C11.9065 5.28613 11.8227 5.24999 11.7551 5.19118C11.6874 5.13238 11.6394 5.0538 11.6176 4.96621C11.4945 4.63009 11.3586 4.29726 11.2075 3.97319C11.1653 3.89878 11.1465 3.81299 11.1539 3.72742C11.1612 3.64185 11.1942 3.56063 11.2485 3.49474C11.4039 3.27577 11.5463 3.0568 11.7028 2.83784C11.7217 2.81844 11.7362 2.79507 11.7452 2.76936C11.7542 2.74366 11.7576 2.71626 11.755 2.6891C11.7524 2.66194 11.744 2.63568 11.7303 2.6122C11.7166 2.58871 11.698 2.56856 11.6758 2.55318C11.46 2.34187 11.2442 2.12619 11.0371 1.90503C10.9292 1.79555 10.8407 1.79555 10.7198 1.88533C10.5181 2.04298 10.3034 2.18203 10.0983 2.3364C10.0323 2.39009 9.95158 2.422 9.86712 2.42787C9.78265 2.43374 9.69844 2.41329 9.62575 2.36925C9.30206 2.21378 8.9611 2.08021 8.62446 1.94773C8.45937 1.88423 8.34716 1.79774 8.32019 1.60614C8.28242 1.33462 8.22308 1.06748 8.17776 0.797054C8.17721 0.769765 8.17102 0.742898 8.15959 0.718193C8.14815 0.693487 8.13173 0.671494 8.11139 0.653638C8.09104 0.635781 8.06723 0.62246 8.04149 0.614538C8.01575 0.606615 7.98866 0.604267 7.96196 0.607646C7.66093 0.607646 7.35989 0.613121 7.05886 0.607646C7.03037 0.60292 7.00122 0.604484 6.97339 0.61223C6.94555 0.619976 6.91969 0.633723 6.89757 0.652532C6.87545 0.671342 6.85758 0.694772 6.8452 0.721225C6.83281 0.747677 6.82619 0.776529 6.8258 0.805813C6.78264 1.07733 6.72437 1.34447 6.68445 1.61599C6.67353 1.69357 6.64026 1.76614 6.58881 1.82458C6.53736 1.88302 6.47003 1.92473 6.39528 1.94445C6.05109 2.08021 5.70689 2.21816 5.37133 2.37472C5.30165 2.41626 5.22126 2.43555 5.14063 2.43008C5.05999 2.42461 4.98285 2.39464 4.91924 2.34406C4.71423 2.19188 4.49736 2.05393 4.29882 1.89299C4.1564 1.77694 4.06037 1.80431 3.946 1.93021C3.76257 2.13057 3.57375 2.32764 3.37306 2.51157C3.23926 2.63529 3.21553 2.73821 3.33313 2.8882C3.49067 3.09075 3.62877 3.30971 3.7766 3.51992C3.82207 3.57828 3.84976 3.64884 3.85627 3.72294C3.86279 3.79703 3.84785 3.87145 3.81328 3.93706C3.65791 4.28522 3.51117 4.63885 3.37521 4.99467C3.35419 5.07 3.31177 5.13737 3.25324 5.18839C3.19472 5.2394 3.12268 5.27179 3.04613 5.28152C2.7343 5.33188 2.42355 5.39867 2.11065 5.44246C2.07946 5.44066 2.04827 5.44604 2.01942 5.4582C1.99056 5.47036 1.96479 5.48898 1.94404 5.51268C1.92328 5.53637 1.90808 5.56452 1.89956 5.59502C1.89104 5.62552 1.88943 5.65758 1.89485 5.6888C1.89485 5.97893 1.9024 6.26907 1.89485 6.55811C1.88867 6.59048 1.88959 6.62384 1.89756 6.65581C1.90552 6.68779 1.92033 6.71758 1.94094 6.74309C1.96154 6.76859 1.98743 6.78918 2.01676 6.80338C2.04609 6.81758 2.07815 6.82504 2.11065 6.82525C2.39334 6.86685 2.67388 6.92378 2.95765 6.95991C3.05774 6.96586 3.15341 7.0038 3.23095 7.06831C3.30848 7.13282 3.36389 7.22059 3.38924 7.31902C3.49748 7.63658 3.62504 7.94702 3.7712 8.24854C3.87047 8.44889 3.8791 8.61093 3.73991 8.78939C3.60072 8.96785 3.46909 9.1901 3.32127 9.37951C3.21337 9.52184 3.23063 9.62366 3.35471 9.7419C3.56296 9.94007 3.76581 10.1437 3.9611 10.355C4.069 10.4733 4.15963 10.4645 4.2848 10.3769C4.48117 10.2258 4.68402 10.0824 4.88903 9.93897C4.96716 9.89592 5.04788 9.85789 5.13072 9.82511V9.82401Z" fill="url(#paint0_linear_124_74)"/>
<path d="M7.4874 16.0001C5.38699 16.0001 3.28657 16.0001 1.18615 16.0001C0.640187 16.0001 0.250675 15.7515 0.0801958 15.3081C0.0151282 15.1458 -0.0109327 14.9702 0.0041686 14.7957C0.0192699 14.6212 0.0750995 14.4528 0.16704 14.3045C0.25898 14.1562 0.38439 14.0323 0.532897 13.9429C0.681403 13.8536 0.84874 13.8014 1.02107 13.7907C1.11278 13.783 1.20665 13.7852 1.29837 13.7852C5.42943 13.7852 9.56121 13.7852 13.6937 13.7852C13.9143 13.7805 14.1339 13.8176 14.3411 13.8947C14.5648 13.988 14.7501 14.1565 14.866 14.372C14.9819 14.5875 15.0213 14.8368 14.9777 15.0782C14.9361 15.3324 14.8074 15.5635 14.6144 15.7309C14.4214 15.8983 14.1764 15.9913 13.9224 15.9935C11.9533 16.0011 9.98417 15.9935 8.01503 15.999L7.4874 16.0001ZM7.51654 14.4125C5.44777 14.4125 3.37972 14.4125 1.31239 14.4125C1.18965 14.4076 1.06683 14.4205 0.947697 14.4509C0.839878 14.4775 0.746315 14.5453 0.68644 14.6401C0.626564 14.7349 0.604977 14.8494 0.62616 14.96C0.63633 15.0621 0.680612 15.1576 0.751658 15.2307C0.822704 15.3038 0.916242 15.35 1.01675 15.3618C1.12418 15.3742 1.23235 15.379 1.34045 15.376C5.45352 15.376 9.5666 15.376 13.6797 15.376C13.7724 15.378 13.8651 15.3729 13.957 15.3607C14.0739 15.3514 14.1825 15.2956 14.2589 15.2053C14.3354 15.115 14.3735 14.9976 14.3648 14.8789C14.3613 14.7604 14.3143 14.6475 14.2331 14.5623C14.1519 14.477 14.0423 14.4256 13.9257 14.418C13.8178 14.4082 13.7099 14.418 13.602 14.418L7.51654 14.4125Z" fill="url(#paint1_linear_124_74)"/>
<path d="M10.5525 6.34132C10.5266 7.17669 10.1209 8.01971 9.29761 8.64049C9.24003 8.68044 9.17505 8.70812 9.10662 8.72186C9.03818 8.7356 8.96771 8.7351 8.89947 8.72041C8.67288 8.64815 8.67612 8.34488 8.89947 8.17299C9.28549 7.88365 9.5844 7.49087 9.76266 7.03874C9.94737 6.55699 9.97883 6.02865 9.8526 5.52784C9.72638 5.02703 9.44882 4.57888 9.05885 4.24626C8.66888 3.91364 8.18608 3.71324 7.67817 3.67318C7.17026 3.63312 6.66274 3.7554 6.2268 4.02287C5.79085 4.29034 5.44837 4.68958 5.24739 5.16458C5.04641 5.63958 4.99702 6.16651 5.10615 6.67143C5.21527 7.17636 5.47744 7.63396 5.85588 7.98002C6.23431 8.32609 6.71002 8.54326 7.21626 8.60107L7.49248 8.63282C7.68346 8.65472 7.79351 8.75873 7.77841 8.96128C7.7633 9.16382 7.6349 9.23937 7.44608 9.24156C6.79385 9.24255 6.16041 9.01994 5.6485 8.60983C5.12323 8.20779 4.74021 7.64413 4.55664 7.00302C4.37306 6.36191 4.39878 5.67775 4.62994 5.0527C5.06801 3.80896 6.32286 2.9725 7.65109 3.03271C9.26525 3.11045 10.5525 4.48776 10.5525 6.34132Z" fill="url(#paint2_linear_124_74)"/>
<path d="M3.38444 15.2073H1.30201C1.21785 15.2073 1.10671 15.226 1.05492 15.1811C0.961052 15.0979 0.84668 14.9741 0.84668 14.8679C0.84668 14.7617 0.984789 14.672 1.07974 14.5986C1.12614 14.5636 1.21461 14.5844 1.28367 14.5844H5.51759C5.58664 14.5844 5.68052 14.5658 5.72044 14.603C5.80784 14.6851 5.91897 14.7924 5.92652 14.8964C5.93408 15.0004 5.82402 15.1077 5.73662 15.1734C5.6513 15.2089 5.55817 15.2207 5.46688 15.2073C4.77309 15.2084 4.07823 15.2073 3.38444 15.2073Z" fill="url(#paint3_linear_124_74)"/>
</g>
<defs>
<linearGradient id="paint0_linear_124_74" x1="1.47954" y1="1.40138" x2="14.6197" y2="6.90341" gradientUnits="userSpaceOnUse">
<stop stop-color="#F8693C"/>
<stop offset="1" stop-color="#8A0D8C" stop-opacity="0.99"/>
</linearGradient>
<linearGradient id="paint1_linear_124_74" x1="0.238016" y1="14.0377" x2="2.34264" y2="19.935" gradientUnits="userSpaceOnUse">
<stop stop-color="#F8693C"/>
<stop offset="1" stop-color="#8A0D8C" stop-opacity="0.99"/>
</linearGradient>
<linearGradient id="paint2_linear_124_74" x1="4.53264" y1="3.73886" x2="11.0493" y2="6.39528" gradientUnits="userSpaceOnUse">
<stop stop-color="#F8693C"/>
<stop offset="1" stop-color="#8A0D8C" stop-opacity="0.99"/>
</linearGradient>
<linearGradient id="paint3_linear_124_74" x1="0.927318" y1="14.6507" x2="1.4538" y2="16.3959" gradientUnits="userSpaceOnUse">
<stop stop-color="#F8693C"/>
<stop offset="1" stop-color="#8A0D8C" stop-opacity="0.99"/>
</linearGradient>
<clipPath id="clip0_124_74">
<rect width="15" height="16" fill="white"/>
</clipPath>
</defs>
</svg>
